<svg width="24" height="24" viewBox="0 0 24 24" fill="none" xmlns="http://www.w3.org/2000/svg">
<path d="M4.56338 16.5826C4.6883 16.4577 4.86007 16.3848 5.04224 16.3848H21.5626C21.8646 16.3848 22.0155 16.7492 21.8022 16.9626L18.5386 20.2261C18.4137 20.351 18.242 20.4238 18.0597 20.4238H1.53932C1.23744 20.4238 1.08649 20.0595 1.2999 19.846L4.56338 16.5826Z" fill="url(#paint0_linear_210_4461)"/>
<path d="M4.56338 4.39774C4.69351 4.27282 4.86526 4.19995 5.04223 4.19995H21.5626C21.8646 4.19995 22.0155 4.5643 21.8022 4.7777L18.5386 8.04119C18.4137 8.16611 18.242 8.23897 18.0597 8.23897H1.53932C1.23744 8.23897 1.08649 7.87463 1.2999 7.66123L4.56338 4.39774Z" fill="url(#paint1_linear_210_4461)"/>
<path d="M18.5386 10.4512C18.4137 10.3263 18.242 10.2534 18.0597 10.2534H1.53932C1.23744 10.2534 1.08649 10.6178 1.2999 10.8312L4.56338 14.0947C4.6883 14.2196 4.86007 14.2924 5.04224 14.2924H21.5626C21.8646 14.2924 22.0155 13.9281 21.8022 13.7147L18.5386 10.4512Z" fill="url(#paint2_linear_210_4461)"/>
<defs>
<linearGradient id="paint0_linear_210_4461" x1="19.9845" y1="2.25054" x2="8.55103" y2="24.1502" gradientUnits="userSpaceOnUse">
<stop stop-color="#00FFA3"/>
<stop offset="1" stop-color="#DC1FFF"/>
</linearGradient>
<linearGradient id="paint1_linear_210_4461" x1="14.9852" y1="-0.35964" x2="3.5517" y2="21.5401" gradientUnits="userSpaceOnUse">
<stop stop-color="#00FFA3"/>
<stop offset="1" stop-color="#DC1FFF"/>
</linearGradient>
<linearGradient id="paint2_linear_210_4461" x1="17.4689" y1="0.93722" x2="6.03546" y2="22.8369" gradientUnits="userSpaceOnUse">
<stop stop-color="#00FFA3"/>
<stop offset="1" stop-color="#DC1FFF"/>
</linearGradient>
</defs>
</svg>
